Coordinates
version=1
nRows=8
nColumns=63
inDegrees=yes

Units are S.I. units (second, meters, Newtons, ...)
If the header above contains a line with 'inDegrees', this indicates whether rotational values are in degrees (yes) or radians (no).

endheader
time	pelvis_tilt	pelvis_list	pelvis_rotation	pelvis_tx	pelvis_ty	pelvis_tz	hip_flexion_r	hip_adduction_r	hip_rotation_r	knee_angle_r	knee_angle_r_beta	ankle_angle_r	subtalar_angle_r	mtp_angle_r	hip_flexion_l	hip_adduction_l	hip_rotation_l	knee_angle_l	knee_angle_l_beta	ankle_angle_l	subtalar_angle_l	mtp_angle_l	L5_S1_Flex_Ext	L5_S1_Lat_Bending	L5_S1_axial_rotation	L4_L5_Flex_Ext	L4_L5_Lat_Bending	L4_L5_axial_rotation	L3_L4_Flex_Ext	L3_L4_Lat_Bending	L3_L4_axial_rotation	L2_L3_Flex_Ext	L2_L3_Lat_Bending	L2_L3_axial_rotation	L1_L2_Flex_Ext	L1_L2_Lat_Bending	L1_L2_axial_rotation	L1_T12_Flex_Ext	L1_T12_Lat_Bending	L1_T12_axial_rotation	Abs_r3	Abs_r2	Abs_r1	Abs_t1	Abs_t2	neck_flexion	neck_bending	neck_rotation	arm_flex_r	arm_add_r	arm_rot_r	elbow_flex_r	pro_sup_r	wrist_flex_r	wrist_dev_r	arm_flex_l	arm_add_l	arm_rot_l	elbow_flex_l	pro_sup_l	wrist_flex_l	wrist_dev_l
      4.73333333	      4.10186487	     -1.64526012	    176.41259522	      2.43087027	      0.89325660	      0.58904943	      6.29552506	      0.95389825	      9.36347786	     11.19459836	      0.19538260	     14.44159774	    -18.29876073	      0.00000000	      6.90051022	      2.50404326	     -4.58772777	     14.26423847	      0.24895793	     16.05812490	    -14.08780738	      0.00000000	      0.00100686	     -0.21279949	     -0.17540053	      0.00186984	     -0.28302332	     -0.18636306	      0.00165417	     -0.51740068	     -0.18636306	      0.00115074	     -0.51740068	     -0.15347546	      0.00093497	     -0.43394072	     -0.14251293	      0.00057532	     -0.32962641	     -0.13155039	      0.00719192	     -2.40723041	     -0.97552510	      0.00000000	      0.00000000	      0.00000000	      0.00000000	      0.00000000	     -9.59708462	     -0.37265138	    -17.88960721	     26.80989216	     51.44785783	      0.00000000	      5.00000014	    -10.09945301	     -9.51854542	     33.27546381	     19.98773480	     54.78537560	      0.00000000	      5.00000014
      4.76666667	      4.10272737	     -1.45028678	    176.59580579	      2.43047790	      0.89310318	      0.58955780	      5.50191997	      1.06640002	      9.27885574	      9.64737337	      0.16837843	     13.71219276	    -18.43446626	      0.00000000	      6.70531001	      2.29581000	     -5.14913881	     14.00520359	      0.24443692	     16.73933471	    -13.27582081	      0.00000000	      0.00133063	     -0.19411417	     -0.22213191	      0.00247112	     -0.25817184	     -0.23601515	      0.00218609	     -0.47196919	     -0.23601515	      0.00152078	     -0.47196919	     -0.19436542	      0.00123562	     -0.39583761	     -0.18048217	      0.00076032	     -0.30068284	     -0.16659893	      0.00950457	     -2.19585828	     -1.23543102	      0.00000000	      0.00000000	      0.00000000	      0.00000000	      0.00000000	     -9.72873787	     -0.40848897	    -18.15957451	     27.05204313	     53.15146289	      0.00000000	      5.00000014	    -10.42144078	     -9.24343181	     31.10080539	     20.09601591	     55.89450102	      0.00000000	      5.00000014
      4.80000000	      4.13052896	     -1.26551453	    176.77987063	      2.43025061	      0.89290914	      0.58942948	      5.31575056	      1.28246591	      8.75903992	      9.26479998	      0.16170126	     13.47074604	    -18.46081599	      0.00000000	      6.46698042	      2.16802068	     -4.85347073	     13.56791475	      0.23680479	     16.97238805	    -13.59168823	      0.00000000	      0.00220480	     -0.18498492	     -0.25622804	      0.00409453	     -0.24602995	     -0.27224230	      0.00362227	     -0.44977234	     -0.27224230	      0.00251987	     -0.44977234	     -0.22419954	      0.00204738	     -0.37722126	     -0.20818529	      0.00125982	     -0.28654165	     -0.19217103	      0.01574867	     -2.09258645	     -1.42506351	      0.00000000	      0.00000000	      0.00000000	      0.00000000	      0.00000000	     -9.45844340	     -1.28956425	    -14.72309231	     26.18594533	     55.45423445	      0.00000000	      5.00000014	    -10.50186270	     -9.25507781	     30.60845471	     20.06311307	     56.59848733	      0.00000000	      5.00000014
      4.83333333	      4.22559212	     -1.06191875	    176.93642862	      2.43015881	      0.89259022	      0.58887154	      5.70336565	      1.59434928	      7.93191489	      9.90689049	      0.17290786	     13.64799931	    -18.42854085	      0.00000000	      6.30294551	      2.00326740	     -4.41717722	     13.12266128	      0.22903365	     17.00539124	    -14.09043074	      0.00000000	      0.00386599	     -0.18488125	     -0.31751320	      0.00717954	     -0.24589206	     -0.33735777	      0.00635144	     -0.44952027	     -0.33735777	      0.00441844	     -0.44952027	     -0.27782405	      0.00358996	     -0.37700985	     -0.25797947	      0.00220903	     -0.28638106	     -0.23813490	      0.02761440	     -2.09141369	     -1.76591315	      0.00000000	      0.00000000	      0.00000000	      0.00000000	      0.00000000	     -8.52115470	     -3.69542678	     -3.62807344	     24.28048648	     59.81490333	      0.00000000	      5.00000014	    -11.02289658	     -9.07724140	     27.51016459	     20.38016239	     56.93561133	      0.00000000	      5.00000014
      4.86666667	      4.35814191	     -0.84164631	    176.94221295	      2.43019360	      0.89219196	      0.58810564	      6.47703705	      1.93239198	      7.12909943	     11.23697433	      0.19612220	     14.06550035	    -18.32548847	      0.00000000	      6.19408789	      1.83319767	     -3.77884145	     12.68658440	      0.22142267	     16.70402163	    -15.08633712	      0.00000000	      0.00431770	     -0.18542303	     -0.37543615	      0.00801841	     -0.24661262	     -0.39890091	      0.00709356	     -0.45083754	     -0.39890091	      0.00493470	     -0.45083754	     -0.32850663	      0.00400942	     -0.37811463	     -0.30504187	      0.00246714	     -0.28722027	     -0.28157711	      0.03084093	     -2.09754235	     -2.08806322	      0.00000000	      0.00000000	      0.00000000	      0.00000000	      0.00000000	     -6.81264374	     -6.72019104	     12.37991877	     22.57402215	     65.29579065	      0.00000000	      5.00000014	    -11.59682413	     -8.87734604	     24.32837807	     20.73574244	     57.58811334	      0.00000000	      5.00000014
      4.90000000	      4.47531218	     -0.67859909	    177.03637297	      2.43036218	      0.89177857	      0.58749690	      7.17032041	      2.15707242	      6.34321898	     12.41891671	      0.21675099	     14.44158912	    -18.19649379	      0.00000000	      6.21373983	      1.71409390	     -3.07305819	     12.50207144	      0.21820231	     16.35404767	    -16.03481682	      0.00000000	      0.00403669	     -0.18603329	     -0.44242675	      0.00749653	     -0.24742427	     -0.47007842	      0.00663187	     -0.45232134	     -0.47007842	      0.00461353	     -0.45232134	     -0.38712340	      0.00374847	     -0.37935908	     -0.35947173	      0.00230656	     -0.28816556	     -0.33182006	      0.02883364	     -2.10444577	     -2.46064484	      0.00000000	      0.00000000	      0.00000000	      0.00000000	      0.00000000	     -4.75358125	     -9.37200762	     29.29345182	     21.94284223	     67.90016380	      0.00000000	      5.00000014	    -12.11056879	     -8.72474353	     21.63028092	     21.17193369	     58.05134322	      0.00000000	      5.00000014
      4.93333333	      4.51481829	     -0.64471300	    177.01935550	      2.43071141	      0.89157905	      0.58683963	      7.53415380	      2.22333600	      6.08267311	     13.03410838	      0.22748811	     14.56431741	    -18.16714297	      0.00000000	      6.21181030	      1.65802949	     -3.00371728	     12.42737403	      0.21689859	     16.13293356	    -16.21689662	      0.00000000	      0.00475684	     -0.18946262	     -0.43980293	      0.00883393	     -0.25198529	     -0.46729061	      0.00781501	     -0.46065942	     -0.46729061	      0.00543659	     -0.46065942	     -0.38482757	      0.00441720	     -0.38635218	     -0.35733988	      0.00271806	     -0.29347760	     -0.32985220	      0.03397763	     -2.14323909	     -2.44605196	      0.00000000	      0.00000000	      0.00000000	      0.00000000	      0.00000000	     -3.16416056	    -10.92557894	     41.00523854	     21.99134226	     67.79126383	      0.00000000	      5.00000014	    -12.27108019	     -8.74660584	     20.36933607	     21.36005210	     59.19616657	      0.00000000	      5.00000014
      4.96666667	      4.46100158	     -0.73478759	    177.16448404	      2.43110036	      0.89164431	      0.58651845	      7.39016719	      2.10990682	      6.21123221	     12.80077107	      0.22341560	     14.44249898	    -18.26344328	      0.00000000	      6.16722374	      1.71693999	     -2.96827911	     12.45124927	      0.21731530	     15.96780603	    -16.06124488	      0.00000000	      0.00477623	     -0.19323294	     -0.40896779	      0.00886994	     -0.25699981	     -0.43452828	      0.00784687	     -0.46982656	     -0.43452828	      0.00545876	     -0.46982656	     -0.35784682	      0.00443521	     -0.39404061	     -0.33228633	      0.00272914	     -0.29931782	     -0.30672584	      0.03411616	     -2.18588963	     -2.27455616	      0.00000000	      0.00000000	      0.00000000	      0.00000000	      0.00000000	     -2.79215065	    -11.29665160	     44.31379325	     22.07836546	     66.64477389	      0.00000000	      5.00000014	    -11.91920527	     -9.17113899	     22.37117280	     21.21504042	     59.31784876	      0.00000000	      5.00000014
